<svg width="47px" height="116px" viewBox="0 0 47 116" version="1.1" xmlns="http://www.w3.org/2000/svg" xmlns:xlink="http://www.w3.org/1999/xlink">
    <g id="Page-1" stroke="none" stroke-width="1" fill="none" fill-rule="evenodd">
        <g id="Icons" transform="translate(-35.000000, -31.000000)">
            <g id="Group" transform="translate(35.000000, 31.000000)">
                <path d="M30,1 L18,1 L18,28.1331616 L17.9866953,28.2957419 C17.7089382,29.9814422 17.1577535,31.5061945 16.3324392,32.8629476 C15.97576,33.4493007 11.1049392,39.3156906 9.52220451,41.401512 C8.0964384,43.2804709 6.87859175,45.0330106 5.87198185,46.6884294 C5.70555999,46.9621182 5.54540714,47.23241 5.3916255,47.4992798 C2.22383701,52.9966011 1,58.9105292 1,64.0662147 L1,115 L46,115 L46,66.5830327 L45.9874207,66.0224334 C45.8372059,59.3281005 44.7402152,52.4119699 42.2337279,47.4509485 C41.1804599,45.3662441 39.8963204,43.3909248 38.3620644,41.4123404 C37.3023804,40.0457665 31.757801,33.9163406 31.2428375,32.7459918 C30.7494253,31.6246224 30.3449816,30.4227591 30.0290558,29.1409431 L30,29.023054 L30,28.9016371 L30,1 Z" id="Combined-Shape" stroke="#000000" stroke-width="2" fill="#000000"></path>
                <text id="X" font-family="KohinoorDevanagari-Regular, Kohinoor Devanagari" font-size="43" font-weight="normal" fill="#FFFFFF">
                    <tspan x="11" y="90">X</tspan>
                </text>
            </g>
        </g>
    </g>
</svg>